<svg xmlns="http://www.w3.org/2000/svg" viewBox="0 0 400 300">
    <g transform="translate(200, 110)">
        <g transform="translate(0, -60)">
            <circle cx="0" cy="0" r="30" fill="#3498db"/>
            <line x1="0" y1="-30" x2="0" y2="-55" stroke="#3498db" stroke-width="4"/>
            <circle cx="0" cy="-55" r="5" fill="#3498db"/>
            <line x1="21.2" y1="-21.2" x2="38.8" y2="-38.8" stroke="#3498db" stroke-width="4"/>
            <circle cx="38.8" cy="-38.8" r="5" fill="#3498db"/>
            <line x1="-21.2" y1="-21.2" x2="-38.8" y2="-38.8" stroke="#3498db" stroke-width="4"/>
            <circle cx="-38.8" cy="-38.8" r="5" fill="#3498db"/>
        </g>
        
        <g transform="translate(-65, 30)">
            <circle cx="0" cy="0" r="30" fill="#e74c3c"/>
            <line x1="-30" y1="0" x2="-55" y2="0" stroke="#e74c3c" stroke-width="4"/>
            <circle cx="-55" cy="0" r="5" fill="#e74c3c"/>
            <line x1="-21.2" y1="21.2" x2="-38.8" y2="38.8" stroke="#e74c3c" stroke-width="4"/>
            <circle cx="-38.8" cy="38.8" r="5" fill="#e74c3c"/>
            <line x1="-21.2" y1="-21.2" x2="-38.8" y2="-38.8" stroke="#e74c3c" stroke-width="4"/>
            <circle cx="-38.8" cy="-38.8" r="5" fill="#e74c3c"/>
        </g>
        
        <g transform="translate(65, 30)">
            <circle cx="0" cy="0" r="30" fill="#95a5a6"/>
            <line x1="30" y1="0" x2="55" y2="0" stroke="#95a5a6" stroke-width="4"/>
            <circle cx="55" cy="0" r="5" fill="#95a5a6"/>
            <line x1="21.2" y1="21.2" x2="38.8" y2="38.8" stroke="#95a5a6" stroke-width="4"/>
            <circle cx="38.8" cy="38.8" r="5" fill="#95a5a6"/>
            <line x1="21.2" y1="-21.2" x2="38.8" y2="-38.8" stroke="#95a5a6" stroke-width="4"/>
            <circle cx="38.8" cy="-38.8" r="5" fill="#95a5a6"/>
        </g>
        
        <line x1="0" y1="-60" x2="-65" y2="30" stroke="#bdc3c7" stroke-width="3" opacity="0.4"/>
        <line x1="0" y1="-60" x2="65" y2="30" stroke="#bdc3c7" stroke-width="3" opacity="0.4"/>
        <line x1="-65" y1="30" x2="65" y2="30" stroke="#bdc3c7" stroke-width="3" opacity="0.4"/>
    </g>    
</svg>
